# xmcd
#
# Track frame offsets:
#	150
#	13585
#	27662
#	41747
#	49962
#	61697
#	69745
#	81875
#	94655
#	104517
#	117795
#	131777
#	146182
#	164502
#	171950
#	185947
#
# Disc length: 2675 seconds
#
# Revision: 0
# Processed by: cddbd v1.4PL0 Copyright (c) Steve Scherf et al.
# Submitted via: audiograbber 1.81.03
#
DISCID=f10a7110
DTITLE=Various Artist - Western Movie Hits (Rawhide)
DYEAR=1900
DGENRE=
TTITLE0=The Good, The Bad And The Ugly - The Good, The Bad And The Ugly
TTITLE1=Deliverance - Dueling Banjos
TTITLE2=The Alamo - Green Leaves Of Summer
TTITLE3=A Fistful Of Dollars - A Fistful Of Dollars
TTITLE4=Rio Bravo - Deguello
TTITLE5=Rawhide - Rawhide
TTITLE6=The Last Of The Mohicans - Top Of The World
TTITLE7=The Magnificent Seven - The Magnificent Seven
TTITLE8=The River Of No Return - The River Of No Return
TTITLE9=Shane - Shane
TTITLE10=High Noon - Do Not Forsake Me
TTITLE11=Calamity Jane - Secret Love
TTITLE12=The Comancheros - The Comancheros
TTITLE13=High Chaperal - High Chaperal
TTITLE14=The Electric Horseman - My Heroes Have Always Been Cowboys
TTITLE15=Once Upon A Time In The West - Jill`s Theme
EXTD=
EXTT0=
EXTT1=
EXTT2=
EXTT3=
EXTT4=
EXTT5=
EXTT6=
EXTT7=
EXTT8=
EXTT9=
EXTT10=
EXTT11=
EXTT12=
EXTT13=
EXTT14=
EXTT15=
PLAYORDER=
